<!-- <svg width="42" height="39" viewBox="0 0 42 39" fill="none" xmlns="http://www.w3.org/2000/svg">
<path fill-rule="evenodd" clip-rule="evenodd" d="M28.9053 4.56416C25.3918 -1.52139 16.6081 -1.52138 13.0946 4.56418L1.23655 25.1029C-2.27694 31.1885 2.11494 38.7954 9.14194 38.7954H32.858C39.885 38.7954 44.2769 31.1885 40.7634 25.1029L28.9053 4.56416ZM14.9388 30.7152C16.3263 31.5733 18.0607 32.0023 20.1419 32.0023C22.4423 32.0023 24.2588 31.4729 25.5915 30.414C26.9425 29.3369 27.618 27.8215 27.618 25.8681C27.618 24.9187 27.4537 24.0972 27.1251 23.4034C26.8147 22.6914 26.3401 22.1163 25.7011 21.6782C25.0621 21.2218 24.4505 20.8749 23.8663 20.6375C23.2821 20.382 22.5335 20.1172 21.6207 19.8434C20.3975 19.4965 19.5668 19.2135 19.1287 18.9944C18.7088 18.7754 18.4988 18.465 18.4988 18.0634C18.4988 17.7713 18.6175 17.5339 18.8548 17.3513C19.1104 17.1505 19.4755 17.0501 19.9502 17.0501C21.1734 17.0501 22.0497 17.7256 22.5792 19.0766L27.1251 16.4203C26.5226 14.978 25.5733 13.8735 24.277 13.1067C22.9991 12.3399 21.5477 11.9565 19.9228 11.9565C17.8598 11.9565 16.1893 12.5316 14.9114 13.6818C13.6517 14.8319 13.0218 16.2833 13.0218 18.036C13.0218 20.9936 14.9296 23.0474 18.7453 24.1976C18.9826 24.2706 19.3386 24.371 19.8133 24.4988C20.288 24.6266 20.6166 24.727 20.7992 24.8001C21 24.8548 21.2282 24.937 21.4838 25.0465C21.7394 25.1561 21.9128 25.2839 22.0041 25.4299C22.0954 25.576 22.141 25.7403 22.141 25.9229C22.141 26.5801 21.5203 26.9087 20.2788 26.9087C18.6175 26.9087 17.4673 26.0963 16.8283 24.4714L12.1455 27.1826C12.6202 28.6614 13.5513 29.8389 14.9388 30.7152Z" fill="#64FFDA"/>
</svg> -->

<svg width="57" height="57" viewBox="0 0 57 57" fill="none" xmlns="http://www.w3.org/2000/svg">
<path fill-rule="evenodd" clip-rule="evenodd" d="M34.6228 2.67363C31.058 -0.891205 25.2782 -0.891213 21.7134 2.67362L2.67363 21.7134C-0.891205 25.2782 -0.891213 31.058 2.67362 34.6228L21.7134 53.6626C25.2782 57.2274 31.058 57.2274 34.6228 53.6626L53.6626 34.6228C57.2274 31.058 57.2274 25.2782 53.6626 21.7134L34.6228 2.67363ZM22.1069 36.0625C23.4944 36.9206 25.2288 37.3496 27.31 37.3496C29.6104 37.3496 31.4269 36.8201 32.7596 35.7613C34.1106 34.6841 34.7861 33.1688 34.7861 31.2153C34.7861 30.266 34.6218 29.4444 34.2932 28.7507C33.9828 28.0387 33.5082 27.4636 32.8692 27.0254C32.2302 26.569 31.6186 26.2221 31.0344 25.9848C30.4502 25.7292 29.7017 25.4645 28.7888 25.1906C27.5656 24.8438 26.7349 24.5608 26.2968 24.3417C25.8769 24.1226 25.6669 23.8123 25.6669 23.4106C25.6669 23.1185 25.7856 22.8812 26.0229 22.6986C26.2785 22.4978 26.6437 22.3974 27.1183 22.3974C28.3415 22.3974 29.2178 23.0729 29.7473 24.4239L34.2932 21.7675C33.6907 20.3252 32.7414 19.2207 31.4452 18.4539C30.1672 17.6872 28.7158 17.3038 27.0909 17.3038C25.0279 17.3038 23.3575 17.8788 22.0795 19.029C20.8198 20.1792 20.1899 21.6306 20.1899 23.3832C20.1899 26.3408 22.0977 28.3947 25.9134 29.5449C26.1507 29.6179 26.5067 29.7183 26.9814 29.8461C27.4561 29.9739 27.7847 30.0743 27.9673 30.1473C28.1681 30.2021 28.3963 30.2843 28.6519 30.3938C28.9075 30.5033 29.0809 30.6311 29.1722 30.7772C29.2635 30.9232 29.3091 31.0875 29.3091 31.2701C29.3091 31.9274 28.6884 32.256 27.447 32.256C25.7856 32.256 24.6354 31.4436 23.9964 29.8187L19.3136 32.5298C19.7883 34.0086 20.7194 35.1862 22.1069 36.0625Z" fill="#ABD1B2"/>
</svg>
