<svg width="42" height="39" viewBox="0 0 42 39" fill="none" xmlns="http://www.w3.org/2000/svg">
<path fill-rule="evenodd" clip-rule="evenodd" d="M28.9053 4.56416C25.3918 -1.52139 16.6081 -1.52138 13.0946 4.56418L1.23655 25.1029C-2.27694 31.1885 2.11494 38.7954 9.14194 38.7954H32.858C39.885 38.7954 44.2769 31.1885 40.7634 25.1029L28.9053 4.56416ZM14.9388 30.7152C16.3263 31.5733 18.0607 32.0023 20.1419 32.0023C22.4423 32.0023 24.2588 31.4729 25.5915 30.414C26.9425 29.3369 27.618 27.8215 27.618 25.8681C27.618 24.9187 27.4537 24.0972 27.1251 23.4034C26.8147 22.6914 26.3401 22.1163 25.7011 21.6782C25.0621 21.2218 24.4505 20.8749 23.8663 20.6375C23.2821 20.382 22.5335 20.1172 21.6207 19.8434C20.3975 19.4965 19.5668 19.2135 19.1287 18.9944C18.7088 18.7754 18.4988 18.465 18.4988 18.0634C18.4988 17.7713 18.6175 17.5339 18.8548 17.3513C19.1104 17.1505 19.4755 17.0501 19.9502 17.0501C21.1734 17.0501 22.0497 17.7256 22.5792 19.0766L27.1251 16.4203C26.5226 14.978 25.5733 13.8735 24.277 13.1067C22.9991 12.3399 21.5477 11.9565 19.9228 11.9565C17.8598 11.9565 16.1893 12.5316 14.9114 13.6818C13.6517 14.8319 13.0218 16.2833 13.0218 18.036C13.0218 20.9936 14.9296 23.0474 18.7453 24.1976C18.9826 24.2706 19.3386 24.371 19.8133 24.4988C20.288 24.6266 20.6166 24.727 20.7992 24.8001C21 24.8548 21.2282 24.937 21.4838 25.0465C21.7394 25.1561 21.9128 25.2839 22.0041 25.4299C22.0954 25.576 22.141 25.7403 22.141 25.9229C22.141 26.5801 21.5203 26.9087 20.2788 26.9087C18.6175 26.9087 17.4673 26.0963 16.8283 24.4714L12.1455 27.1826C12.6202 28.6614 13.5513 29.8389 14.9388 30.7152Z" fill="#64FFDA"/>
</svg>
